<svg version="1.0" xmlns="http://www.w3.org/2000/svg" width="682.667" height="682.667" viewBox="0 0 512 512">
  <path d="M253 22.3c-1.4.7-3.5 3-4.6 5.2-1.2 2.2-11.3 35.5-22.4 74-13.2 45.8-21.3 72.1-23.4 76-3.8 7.4-16.2 20.1-23.6 24.2-3.6 2-28.6 10.2-71.5 23.3-36.3 11.1-68.2 21.4-71 22.9-8 4.2-8.8 10.9-1.7 15.5C37 264.9 64.6 274 103 286c35.5 11.1 66.9 21.4 69.8 22.8 10.9 5.3 24.3 19.1 28.6 29.4.8 1.9 11 34.3 22.6 71.9s22 70.2 22.9 72.4c4.4 9.9 12.9 10.6 17.7 1.4.7-1.5 11.3-34.7 23.4-73.9s22.5-72.2 23.2-73.4c5.5-10.6 17.9-22.9 28-27.8 2.9-1.4 34.3-11.6 69.8-22.7 38.7-12.2 66-21.2 68.2-22.7 7-4.6 6.3-11.3-1.7-15.5-2.8-1.5-34.7-11.8-71-22.9-42.7-13-67.9-21.3-71.5-23.3-7.4-4.1-19.7-16.8-23.6-24.2-2.1-3.9-10.1-30.2-23.4-76-11.1-38.5-21-71.6-22-73.6-3-5.8-6.8-7.7-11-5.6" fill="#ffff" stroke="#ffff" stroke-linecap="round" stroke-linejoin="round" stroke-width="16"/>
</svg>
